<?xml version="1.0" encoding="UTF-8" standalone="no"?>
<!-- Created with Inkscape (http://www.inkscape.org/) -->
<svg
   xmlns:svg="http://www.w3.org/2000/svg"
   xmlns="http://www.w3.org/2000/svg"
   version="1.0"
   width="500"
   height="347.16"
   id="svg2">
  <defs
     id="defs4">
    <clipPath
       id="clipPath2850">
      <path
         d="M 0,842.25 L 595,842.25 L 595,0.25 L 0,0.25 L 0,842.25 z"
         id="path2852" />
    </clipPath>
    <clipPath
       id="clipPath2844">
      <path
         d="M -1,843 L 596,843 L 596,-1 L -1,-1 L -1,843 z"
         id="path2846" />
    </clipPath>
    <clipPath
       id="clipPath2808">
      <path
         d="M 466.63,297.66 L 537.922,297.66 L 537.922,316.083 L 466.63,316.083 L 466.63,297.66 z"
         id="path2810" />
    </clipPath>
    <clipPath
       id="clipPath2748">
      <path
         d="M 14.45,635.4 L 156.18,635.4 L 156.18,470.5 L 14.45,470.5 L 14.45,635.4 z"
         id="path2750" />
    </clipPath>
    <clipPath
       id="clipPath2648">
      <path
         d="M 0,842.25 L 595,842.25 L 595,0.25 L 0,0.25 L 0,842.25 z"
         id="path2650" />
    </clipPath>
    <clipPath
       id="clipPath2642">
      <path
         d="M -1,843 L 596,843 L 596,-1 L -1,-1 L -1,843 z"
         id="path2644" />
    </clipPath>
    <clipPath
       id="clipPath2592">
      <path
         d="M 0,842.25 L 595,842.25 L 595,0.25 L 0,0.25 L 0,842.25 z"
         id="path2594" />
    </clipPath>
    <clipPath
       id="clipPath2586">
      <path
         d="M -1,843 L 596,843 L 596,-1 L -1,-1 L -1,843 z"
         id="path2588" />
    </clipPath>
    <clipPath
       id="clipPath2574">
      <path
         d="M 520.85,704.97 C 520.85,702.57 520.85,700.17 520.85,697.77 C 520.85,688.491 520.85,679.209 520.85,669.93 C 372.385,669.93 223.875,669.93 75.41,669.93 C 75.41,688.728 75.41,707.532 75.41,726.33 C 76.312,726.361 77.354,726.609 78.05,726.81 C 78.61,726.81 79.17,726.81 79.73,726.81 C 79.73,726.89 79.73,726.97 79.73,727.05 C 80.29,727.05 80.85,727.05 81.41,727.05 C 81.41,727.13 81.41,727.21 81.41,727.29 C 81.97,727.29 82.53,727.29 83.09,727.29 C 83.09,727.37 83.09,727.45 83.09,727.53 C 85.41,727.77 87.73,728.01 90.05,728.25 C 90.05,728.33 90.05,728.41 90.05,728.49 C 90.69,728.49 91.33,728.49 91.97,728.49 C 91.97,728.57 91.97,728.65 91.97,728.73 C 92.53,728.73 93.09,728.73 93.65,728.73 C 97.283,729.789 101.677,729.63 106.37,729.69 C 106.93,730.33 107.49,730.97 108.05,731.61 C 108.21,731.69 108.37,731.77 108.53,731.85 C 108.53,732.01 108.53,732.17 108.53,732.33 C 108.93,732.65 109.33,732.97 109.73,733.29 C 109.73,733.45 109.73,733.61 109.73,733.77 C 110.45,734.41 111.17,735.05 111.89,735.69 C 111.89,735.85 111.89,736.01 111.89,736.17 C 112.05,736.25 112.21,736.33 112.37,736.41 C 113.174,737.259 114.433,738.287 114.77,739.53 C 114.93,739.53 115.09,739.53 115.25,739.53 C 116.016,740.945 117.282,741.802 118.37,742.89 C 120.21,744.81 122.05,746.73 123.89,748.65 C 124.13,748.73 124.37,748.81 124.61,748.89 C 125.17,749.53 125.73,750.17 126.29,750.81 C 126.53,750.89 126.77,750.97 127.01,751.05 C 127.682,751.658 127.872,752.444 128.93,752.73 C 128.93,752.89 128.93,753.05 128.93,753.21 C 129.09,753.21 129.25,753.21 129.41,753.21 C 130.041,754.284 131.048,754.885 132.05,755.61 C 132.61,756.25 133.17,756.89 133.73,757.53 C 133.89,757.53 134.05,757.53 134.21,757.53 C 134.53,757.93 134.85,758.33 135.17,758.73 C 135.33,758.73 135.49,758.73 135.65,758.73 C 135.73,758.89 135.81,759.05 135.89,759.21 C 135.97,759.21 136.05,759.21 136.13,759.21 C 136.21,759.37 136.29,759.53 136.37,759.69 C 136.53,759.69 136.69,759.69 136.85,759.69 C 137.01,759.93 137.17,760.17 137.33,760.41 C 137.49,760.41 137.65,760.41 137.81,760.41 C 137.89,760.57 137.97,760.73 138.05,760.89 C 138.21,760.89 138.37,760.89 138.53,760.89 C 138.61,761.05 138.69,761.21 138.77,761.37 C 139.09,761.45 139.41,761.53 139.73,761.61 C 139.81,761.77 139.89,761.93 139.97,762.09 C 140.21,762.09 140.45,762.09 140.69,762.09 C 140.69,762.17 140.69,762.25 140.69,762.33 C 140.85,762.33 141.01,762.33 141.17,762.33 C 141.17,762.41 141.17,762.49 141.17,762.57 C 141.65,762.73 142.13,762.89 142.61,763.05 C 142.61,763.13 142.61,763.21 142.61,763.29 C 142.85,763.29 143.09,763.29 143.33,763.29 C 143.33,763.37 143.33,763.45 143.33,763.53 C 143.49,763.53 143.65,763.53 143.81,763.53 C 143.81,763.61 143.81,763.69 143.81,763.77 C 144.13,763.85 144.45,763.93 144.77,764.01 C 144.77,764.09 144.77,764.17 144.77,764.25 C 145.25,764.33 145.73,764.41 146.21,764.49 C 146.21,764.57 146.21,764.65 146.21,764.73 C 147.508,765.14 148.709,764.416 149.57,764.25 C 149.65,764.01 149.73,763.77 149.81,763.53 C 149.73,763.53 149.65,763.53 149.57,763.53 C 149.57,763.21 149.57,762.89 149.57,762.57 C 149.49,762.57 149.41,762.57 149.33,762.57 C 149.33,762.25 149.33,761.93 149.33,761.61 C 149.25,761.61 149.17,761.61 149.09,761.61 C 149.09,761.37 149.09,761.13 149.09,760.89 C 149.01,760.89 148.93,760.89 148.85,760.89 C 148.85,760.73 148.85,760.57 148.85,760.41 C 148.77,760.41 148.69,760.41 148.61,760.41 C 148.37,759.69 148.13,758.97 147.89,758.25 C 147.81,758.25 147.73,758.25 147.65,758.25 C 147.65,758.09 147.65,757.93 147.65,757.77 C 147.57,757.77 147.49,757.77 147.41,757.77 C 147.41,757.53 147.41,757.29 147.41,757.05 C 147.33,757.05 147.25,757.05 147.17,757.05 C 147.17,756.89 147.17,756.73 147.17,756.57 C 147.09,756.57 147.01,756.57 146.93,756.57 C 146.93,756.33 146.93,756.09 146.93,755.85 C 146.85,755.85 146.77,755.85 146.69,755.85 C 146.61,755.45 146.53,755.05 146.45,754.65 C 146.37,754.65 146.29,754.65 146.21,754.65 C 146.13,754.33 146.05,754.01 145.97,753.69 C 145.89,753.69 145.81,753.69 145.73,753.69 C 145.65,753.21 145.57,752.73 145.49,752.25 C 145.41,752.25 145.33,752.25 145.25,752.25 C 145.25,752.09 145.25,751.93 145.25,751.77 C 145.17,751.77 145.09,751.77 145.01,751.77 C 145.01,751.53 145.01,751.29 145.01,751.05 C 144.93,751.05 144.85,751.05 144.77,751.05 C 144.69,750.65 144.61,750.25 144.53,749.85 C 144.45,749.85 144.37,749.85 144.29,749.85 C 144.29,749.69 144.29,749.53 144.29,749.37 C 144.21,749.37 144.13,749.37 144.05,749.37 C 144.05,749.13 144.05,748.89 144.05,748.65 C 143.97,748.65 143.89,748.65 143.81,748.65 C 143.73,748.33 143.65,748.01 143.57,747.69 C 143.49,747.69 143.41,747.69 143.33,747.69 C 143.33,747.45 143.33,747.21 143.33,746.97 C 143.25,746.97 143.17,746.97 143.09,746.97 C 143.01,746.57 142.93,746.17 142.85,745.77 C 142.77,745.77 142.69,745.77 142.61,745.77 C 142.53,745.45 142.45,745.13 142.37,744.81 C 142.29,744.81 142.21,744.81 142.13,744.81 C 142.13,744.57 142.13,744.33 142.13,744.09 C 142.05,744.09 141.97,744.09 141.89,744.09 C 141.89,743.93 141.89,743.77 141.89,743.61 C 141.81,743.61 141.73,743.61 141.65,743.61 C 141.65,743.37 141.65,743.13 141.65,742.89 C 141.57,742.89 141.49,742.89 141.41,742.89 C 141.33,742.57 141.25,742.25 141.17,741.93 C 141.09,741.93 141.01,741.93 140.93,741.93 C 140.93,741.77 140.93,741.61 140.93,741.45 C 140.85,741.45 140.77,741.45 140.69,741.45 C 140.69,741.21 140.69,740.97 140.69,740.73 C 140.61,740.73 140.53,740.73 140.45,740.73 C 140.45,740.57 140.45,740.41 140.45,740.25 C 140.37,740.25 140.29,740.25 140.21,740.25 C 140.13,739.93 140.05,739.61 139.97,739.29 C 139.89,739.29 139.81,739.29 139.73,739.29 C 139.65,738.81 139.57,738.33 139.49,737.85 C 139.41,737.85 139.33,737.85 139.25,737.85 C 139.17,737.53 139.09,737.21 139.01,736.89 C 138.93,736.89 138.85,736.89 138.77,736.89 C 138.69,736.49 138.61,736.09 138.53,735.69 C 138.45,735.69 138.37,735.69 138.29,735.69 C 137.65,733.69 137.01,731.69 136.37,729.69 C 137.81,729.69 139.25,729.69 140.69,729.69 C 141.338,730.248 143.664,729.93 144.77,729.93 C 148.45,729.93 152.13,729.93 155.81,729.93 C 157.17,729.93 158.53,729.93 159.89,729.93 C 159.89,730.01 159.89,730.09 159.89,730.17 C 166.449,730.17 173.011,730.17 179.57,730.17 C 182.21,730.09 184.85,730.01 187.49,729.93 C 188.109,729.928 189.493,729.662 189.65,729.69 C 189.65,729.77 189.65,729.85 189.65,729.93 C 189.97,729.93 190.29,729.93 190.61,729.93 C 190.61,730.01 190.61,730.09 190.61,730.17 C 190.85,730.17 191.09,730.17 191.33,730.17 C 191.33,730.25 191.33,730.33 191.33,730.41 C 191.89,730.49 192.45,730.57 193.01,730.65 C 193.01,730.73 193.01,730.81 193.01,730.89 C 193.73,731.05 194.45,731.21 195.17,731.37 C 195.33,731.61 195.49,731.85 195.65,732.09 C 195.73,732.09 195.81,732.09 195.89,732.09 C 195.97,732.41 196.05,732.73 196.13,733.05 C 196.37,733.21 196.61,733.37 196.85,733.53 C 196.93,733.85 197.01,734.17 197.09,734.49 C 197.17,734.49 197.25,734.49 197.33,734.49 C 197.41,734.73 197.49,734.97 197.57,735.21 C 197.73,735.29 197.89,735.37 198.05,735.45 C 198.13,735.77 198.21,736.09 198.29,736.41 C 198.45,736.49 198.61,736.57 198.77,736.65 C 198.93,737.13 199.09,737.61 199.25,738.09 C 199.41,738.17 199.57,738.25 199.73,738.33 C 199.89,738.81 200.05,739.29 200.21,739.77 C 200.37,739.85 200.53,739.93 200.69,740.01 C 200.69,740.17 200.69,740.33 200.69,740.49 C 200.77,740.49 200.85,740.49 200.93,740.49 C 200.93,740.65 200.93,740.81 200.93,740.97 L 201.41,741.45 C 201.41,741.61 201.41,741.77 201.41,741.93 C 201.57,742.01 201.73,742.09 201.89,742.17 C 201.89,742.33 201.89,742.49 201.89,742.65 C 201.97,742.65 202.05,742.65 202.13,742.65 C 202.13,742.81 202.13,742.97 202.13,743.13 C 202.21,743.13 202.29,743.13 202.37,743.13 C 202.37,743.29 202.37,743.45 202.37,743.61 L 202.85,744.09 C 202.85,744.25 202.85,744.41 202.85,744.57 C 203.01,744.65 203.17,744.73 203.33,744.81 C 203.33,744.97 203.33,745.13 203.33,745.29 C 203.41,745.29 203.49,745.29 203.57,745.29 C 203.57,745.45 203.57,745.61 203.57,745.77 L 204.05,746.25 C 204.05,746.41 204.05,746.57 204.05,746.73 C 204.21,746.81 204.37,746.89 204.53,746.97 C 205.09,748.25 205.65,749.53 206.21,750.81 C 206.37,750.89 206.53,750.97 206.69,751.05 C 206.77,751.37 206.85,751.69 206.93,752.01 C 207.01,752.01 207.09,752.01 207.17,752.01 C 207.17,752.17 207.17,752.33 207.17,752.49 L 207.65,752.97 C 207.65,753.13 207.65,753.29 207.65,753.45 C 207.81,753.53 207.97,753.61 208.13,753.69 C 208.13,753.85 208.13,754.01 208.13,754.17 C 208.29,754.25 208.45,754.33 208.61,754.41 C 208.69,754.73 208.77,755.05 208.85,755.37 C 209.01,755.45 209.17,755.53 209.33,755.61 C 210.112,756.444 210.432,757.16 211.97,757.29 C 213.599,754.364 211.728,752.234 210.77,749.85 C 210.77,749.61 210.77,749.37 210.77,749.13 C 210.69,749.13 210.61,749.13 210.53,749.13 C 210.53,748.89 210.53,748.65 210.53,748.41 C 210.45,748.41 210.37,748.41 210.29,748.41 C 210.29,748.17 210.29,747.93 210.29,747.69 C 210.21,747.69 210.13,747.69 210.05,747.69 C 210.05,747.45 210.05,747.21 210.05,746.97 C 209.97,746.97 209.89,746.97 209.81,746.97 C 209.81,746.81 209.81,746.65 209.81,746.49 C 209.73,746.49 209.65,746.49 209.57,746.49 C 209.57,746.25 209.57,746.01 209.57,745.77 C 209.49,745.77 209.41,745.77 209.33,745.77 C 209.25,745.45 209.17,745.13 209.09,744.81 C 209.01,744.81 208.93,744.81 208.85,744.81 C 208.85,744.57 208.85,744.33 208.85,744.09 C 208.77,744.09 208.69,744.09 208.61,744.09 C 208.53,743.77 208.45,743.45 208.37,743.13 C 208.29,743.13 208.21,743.13 208.13,743.13 C 208.13,742.97 208.13,742.81 208.13,742.65 C 208.05,742.65 207.97,742.65 207.89,742.65 C 207.89,742.41 207.89,742.17 207.89,741.93 C 207.81,741.93 207.73,741.93 207.65,741.93 C 207.65,741.77 207.65,741.61 207.65,741.45 C 207.49,741.37 207.33,741.29 207.17,741.21 C 207.09,740.89 207.01,740.57 206.93,740.25 C 206.85,740.25 206.77,740.25 206.69,740.25 C 206.69,740.09 206.69,739.93 206.69,739.77 C 206.61,739.77 206.53,739.77 206.45,739.77 C 206.45,739.61 206.45,739.45 206.45,739.29 C 206.37,739.29 206.29,739.29 206.21,739.29 C 206.21,739.13 206.21,738.97 206.21,738.81 L 205.73,738.33 C 205.73,738.17 205.73,738.01 205.73,737.85 C 205.57,737.77 205.41,737.69 205.25,737.61 C 205.25,737.45 205.25,737.29 205.25,737.13 C 205.09,737.05 204.93,736.97 204.77,736.89 C 204.69,736.57 204.61,736.25 204.53,735.93 C 204.37,735.85 204.21,735.77 204.05,735.69 C 203.73,735.05 203.41,734.41 203.09,733.77 C 203.25,733.77 203.41,733.77 203.57,733.77 C 203.57,733.85 203.57,733.93 203.57,734.01 C 204.37,734.17 205.17,734.33 205.97,734.49 C 205.97,734.57 205.97,734.65 205.97,734.73 C 206.21,734.73 206.45,734.73 206.69,734.73 C 206.69,734.81 206.69,734.89 206.69,734.97 C 207.01,734.97 207.33,734.97 207.65,734.97 C 207.65,735.05 207.65,735.13 207.65,735.21 C 208.21,735.29 208.77,735.37 209.33,735.45 C 209.33,735.53 209.33,735.61 209.33,735.69 C 209.57,735.69 209.81,735.69 210.05,735.69 C 210.05,735.77 210.05,735.85 210.05,735.93 C 210.29,735.93 210.53,735.93 210.77,735.93 C 210.77,736.01 210.77,736.09 210.77,736.17 C 211.33,736.25 211.89,736.33 212.45,736.41 C 212.45,736.49 212.45,736.57 212.45,736.65 C 212.77,736.65 213.09,736.65 213.41,736.65 C 213.93,736.833 215.115,737.684 216.05,737.37 C 216.05,737.29 216.05,737.21 216.05,737.13 C 216.21,737.13 216.37,737.13 216.53,737.13 C 216.53,737.05 216.53,736.97 216.53,736.89 C 216.77,736.89 217.01,736.89 217.25,736.89 C 217.25,736.81 217.25,736.73 217.25,736.65 C 217.41,736.65 217.57,736.65 217.73,736.65 C 217.73,736.57 217.73,736.49 217.73,736.41 C 217.97,736.41 218.21,736.41 218.45,736.41 C 218.45,736.33 218.45,736.25 218.45,736.17 C 218.77,736.09 219.09,736.01 219.41,735.93 C 219.41,735.85 219.41,735.77 219.41,735.69 C 219.65,735.69 219.89,735.69 220.13,735.69 C 220.13,735.61 220.13,735.53 220.13,735.45 C 220.29,735.45 220.45,735.45 220.61,735.45 C 220.61,735.37 220.61,735.29 220.61,735.21 C 220.85,735.21 221.09,735.21 221.33,735.21 C 221.33,735.13 221.33,735.05 221.33,734.97 C 221.73,734.89 222.13,734.81 222.53,734.73 C 222.53,734.65 222.53,734.57 222.53,734.49 C 222.85,734.41 223.17,734.33 223.49,734.25 C 223.49,734.17 223.49,734.09 223.49,734.01 C 223.73,734.01 223.97,734.01 224.21,734.01 C 224.21,733.93 224.21,733.85 224.21,733.77 C 224.37,733.77 224.53,733.77 224.69,733.77 C 224.69,733.69 224.69,733.61 224.69,733.53 C 224.93,733.53 225.17,733.53 225.41,733.53 C 225.41,733.45 225.41,733.37 225.41,733.29 C 225.73,733.21 226.05,733.13 226.37,733.05 C 226.37,732.97 226.37,732.89 226.37,732.81 C 226.61,732.81 226.85,732.81 227.09,732.81 C 227.09,732.73 227.09,732.65 227.09,732.57 C 227.25,732.57 227.41,732.57 227.57,732.57 C 227.57,732.49 227.57,732.41 227.57,732.33 C 227.81,732.33 228.05,732.33 228.29,732.33 C 228.29,732.25 228.29,732.17 228.29,732.09 C 228.45,732.09 228.61,732.09 228.77,732.09 C 228.77,732.01 228.77,731.93 228.77,731.85 C 229.01,731.85 229.25,731.85 229.49,731.85 C 229.49,731.77 229.49,731.69 229.49,731.61 C 229.81,731.53 230.13,731.45 230.45,731.37 C 230.45,731.29 230.45,731.21 230.45,731.13 C 230.69,731.13 230.93,731.13 231.17,731.13 C 231.17,731.05 231.17,730.97 231.17,730.89 C 231.33,730.89 231.49,730.89 231.65,730.89 C 231.65,730.81 231.65,730.73 231.65,730.65 C 232.05,730.57 232.45,730.49 232.85,730.41 C 232.85,730.33 232.85,730.25 232.85,730.17 C 233.09,730.17 233.33,730.17 233.57,730.17 C 233.57,730.09 233.57,730.01 233.57,729.93 C 233.89,729.85 234.21,729.77 234.53,729.69 C 234.53,729.61 234.53,729.53 234.53,729.45 C 234.77,729.45 235.01,729.45 235.25,729.45 C 235.25,729.37 235.25,729.29 235.25,729.21 C 235.654,729.129 235.671,729.437 235.73,729.45 C 237.17,729.45 238.61,729.45 240.05,729.45 C 240.05,729.53 240.05,729.61 240.05,729.69 C 240.93,729.69 241.81,729.69 242.69,729.69 C 244.77,729.77 246.85,729.85 248.93,729.93 C 248.93,730.01 248.93,730.09 248.93,730.17 C 251.81,730.25 254.69,730.33 257.57,730.41 C 260.163,731.135 263.847,730.401 266.45,731.13 C 267.89,731.13 269.33,731.13 270.77,731.13 C 270.77,731.21 270.77,731.29 270.77,731.37 C 272.21,731.37 273.65,731.37 275.09,731.37 C 277.6,732.072 282.162,731.61 285.17,731.61 C 286.885,731.61 289.124,731.741 290.45,731.37 C 291.73,731.37 293.01,731.37 294.29,731.37 C 297.413,731.37 301.165,731.583 303.89,731.13 C 310.129,731.05 316.371,730.97 322.61,730.89 C 324.962,730.89 328.114,731.192 330.05,730.65 C 332.21,730.65 334.37,730.65 336.53,730.65 C 340.609,730.57 344.691,730.49 348.77,730.41 C 351.263,730.41 354.619,730.75 356.69,730.17 C 360.929,730.17 365.171,730.17 369.41,730.17 C 372.121,729.935 375.678,729.93 378.77,729.93 C 380.21,729.93 381.65,729.93 383.09,729.93 C 383.09,729.85 383.09,729.77 383.09,729.69 C 384.37,729.69 385.65,729.69 386.93,729.69 C 389.848,729.69 393.812,730.144 396.29,729.45 C 397.33,729.45 398.37,729.45 399.41,729.45 C 402.416,729.45 406.982,729.913 409.49,729.21 C 413.89,729.21 418.291,729.21 422.69,729.21 C 425.166,728.514 429.133,728.97 432.05,728.97 C 433.41,728.97 434.77,728.97 436.13,728.97 C 436.13,728.89 436.13,728.81 436.13,728.73 C 437.57,728.73 439.01,728.73 440.45,728.73 C 443.543,728.73 447.099,728.724 449.81,728.49 C 454.201,728.112 460.459,729.329 463.97,728.01 C 464.29,726.57 464.61,725.13 464.93,723.69 C 465.01,723.69 465.09,723.69 465.17,723.69 C 465.17,723.37 465.17,723.05 465.17,722.73 C 465.25,722.73 465.33,722.73 465.41,722.73 C 465.41,722.49 465.41,722.25 465.41,722.01 C 465.49,722.01 465.57,722.01 465.65,722.01 C 465.65,721.69 465.65,721.37 465.65,721.05 C 466.167,719.618 466.754,717.877 467.09,716.25 C 468.689,716.268 470.403,715.905 471.65,715.53 C 472.13,715.53 472.61,715.53 473.09,715.53 C 473.09,715.45 473.09,715.37 473.09,715.29 C 473.57,715.29 474.05,715.29 474.53,715.29 C 474.53,715.21 474.53,715.13 474.53,715.05 C 475.01,715.05 475.49,715.05 475.97,715.05 C 475.97,714.97 475.97,714.89 475.97,714.81 C 476.53,714.81 477.09,714.81 477.65,714.81 C 479.365,714.298 481.694,714.118 483.41,713.61 C 484.93,713.45 486.45,713.29 487.97,713.13 C 487.97,713.05 487.97,712.97 487.97,712.89 C 488.45,712.89 488.93,712.89 489.41,712.89 C 489.41,712.81 489.41,712.73 489.41,712.65 C 489.89,712.65 490.37,712.65 490.85,712.65 C 490.85,712.57 490.85,712.49 490.85,712.41 C 491.41,712.41 491.97,712.41 492.53,712.41 C 496.593,711.201 501.663,711.209 505.73,710.01 C 506.29,710.01 506.85,710.01 507.41,710.01 C 510.107,709.209 513.577,709.141 516.29,708.33 C 516.77,708.33 517.25,708.33 517.73,708.33 C 517.73,708.25 517.73,708.17 517.73,708.09 C 518.678,707.807 519.99,708.172 520.61,707.61 C 521.017,707.142 520.85,705.821 520.85,704.97 M 136.61,749.13 C 136.692,749.612 136.487,749.428 136.37,749.61 C 136.232,750.092 136.399,749.818 136.13,750.09 C 136.13,750.01 136.13,749.93 136.13,749.85 C 135.17,749.05 134.21,748.25 133.25,747.45 C 133.09,747.21 132.93,746.97 132.77,746.73 C 132.61,746.73 132.45,746.73 132.29,746.73 C 131.97,746.33 131.65,745.93 131.33,745.53 C 131.17,745.53 131.01,745.53 130.85,745.53 C 129.89,744.49 128.93,743.45 127.97,742.41 C 127.57,742.09 127.17,741.77 126.77,741.45 C 126.69,741.29 126.61,741.13 126.53,740.97 C 126.37,740.97 126.21,740.97 126.05,740.97 C 124.37,739.21 122.69,737.45 121.01,735.69 C 120.29,735.05 119.57,734.41 118.85,733.77 C 118.77,733.53 118.69,733.29 118.61,733.05 C 118.13,732.65 117.65,732.25 117.17,731.85 C 117.17,731.69 117.17,731.53 117.17,731.37 C 117.09,731.37 117.01,731.37 116.93,731.37 C 116.472,730.825 115.942,730.475 115.73,729.69 C 120.13,729.69 124.53,729.69 128.93,729.69 C 129.027,729.889 129.41,730.17 129.41,730.17 C 129.41,730.65 129.41,731.13 129.41,731.61 C 129.49,731.61 129.57,731.61 129.65,731.61 C 129.65,731.77 129.65,731.93 129.65,732.09 C 129.73,732.09 129.81,732.09 129.89,732.09 C 129.97,732.57 130.05,733.05 130.13,733.53 C 130.21,733.53 130.29,733.53 130.37,733.53 C 130.37,733.69 130.37,733.85 130.37,734.01 C 130.45,734.01 130.53,734.01 130.61,734.01 C 130.69,734.49 130.77,734.97 130.85,735.45 C 130.93,735.45 131.01,735.45 131.09,735.45 C 131.09,735.61 131.09,735.77 131.09,735.93 C 131.17,735.93 131.25,735.93 131.33,735.93 C 131.33,736.17 131.33,736.41 131.33,736.65 C 131.41,736.65 131.49,736.65 131.57,736.65 C 131.65,736.97 131.73,737.29 131.81,737.61 C 131.89,737.61 131.97,737.61 132.05,737.61 C 132.05,737.85 132.05,738.09 132.05,738.33 C 132.13,738.33 132.21,738.33 132.29,738.33 C 132.29,738.49 132.29,738.65 132.29,738.81 C 132.37,738.81 132.45,738.81 132.53,738.81 C 132.53,739.05 132.53,739.29 132.53,739.53 C 132.61,739.53 132.69,739.53 132.77,739.53 C 132.77,739.69 132.77,739.85 132.77,740.01 C 132.85,740.01 132.93,740.01 133.01,740.01 C 133.01,740.25 133.01,740.49 133.01,740.73 C 133.09,740.73 133.17,740.73 133.25,740.73 C 133.25,740.89 133.25,741.05 133.25,741.21 C 133.33,741.21 133.41,741.21 133.49,741.21 C 133.49,741.45 133.49,741.69 133.49,741.93 C 133.57,741.93 133.65,741.93 133.73,741.93 C 133.73,742.09 133.73,742.25 133.73,742.41 C 133.81,742.41 133.89,742.41 133.97,742.41 C 134.05,742.81 134.13,743.21 134.21,743.61 C 134.29,743.61 134.37,743.61 134.45,743.61 C 134.45,743.85 134.45,744.09 134.45,744.33 C 134.53,744.33 134.61,744.33 134.69,744.33 C 134.69,744.57 134.69,744.81 134.69,745.05 C 134.77,745.05 134.85,745.05 134.93,745.05 C 134.93,745.21 134.93,745.37 134.93,745.53 C 135.01,745.53 135.09,745.53 135.17,745.53 C 135.25,745.93 135.33,746.33 135.41,746.73 C 135.49,746.73 135.57,746.73 135.65,746.73 C 135.65,746.89 135.65,747.05 135.65,747.21 C 135.73,747.21 135.81,747.21 135.89,747.21 C 135.89,747.45 135.89,747.69 135.89,747.93 C 135.97,747.93 136.05,747.93 136.13,747.93 C 136.13,748.17 136.13,748.41 136.13,748.65 C 136.21,748.65 136.29,748.65 136.37,748.65 C 136.37,748.81 136.37,748.97 136.37,749.13 C 136.45,749.13 136.53,749.13 136.61,749.13"
         id="path2576" />
    </clipPath>
    <clipPath
       id="clipPath2540">
      <path
         d="M 0,842.25 L 595,842.25 L 595,0.25 L 0,0.25 L 0,842.25 z"
         id="path2542" />
    </clipPath>
    <clipPath
       id="clipPath2534">
      <path
         d="M -1,843 L 596,843 L 596,-1 L -1,-1 L -1,843 z"
         id="path2536" />
    </clipPath>
    <clipPath
       id="clipPath2522">
      <path
         d="M 0,842.25 L 595,842.25 L 595,0.25 L 0,0.25 L 0,842.25 z"
         id="path2524" />
    </clipPath>
    <clipPath
       id="clipPath2516">
      <path
         d="M -1,843 L 596,843 L 596,-1 L -1,-1 L -1,843 z"
         id="path2518" />
    </clipPath>
    <clipPath
       id="clipPath2510">
      <path
         d="M -623.22,859.01 L 610.55,859.01 L 610.55,728.61 L -623.22,728.61 L -623.22,859.01 z"
         id="path2512" />
    </clipPath>
    <clipPath
       id="clipPath2426">
      <path
         d="M 0,842.25 L 595,842.25 L 595,0.25 L 0,0.25 L 0,842.25 z"
         id="path2428" />
    </clipPath>
    <clipPath
       id="clipPath2420">
      <path
         d="M -1,843 L 596,843 L 596,-1 L -1,-1 L -1,843 z"
         id="path2422" />
    </clipPath>
  </defs>
  <g
     transform="translate(-475.1663,-651.21413)"
     id="layer1">
    <g
       transform="matrix(4.0595828,0,0,4.0595828,-1443.8108,-2983.405)"
       id="g3615">
      <path
         d="M 557.01259,978.37084 L 562.25009,978.37084 L 562.25009,943.60084 L 557.01259,943.60084 L 557.01259,978.37084 z"
         id="path2602"
         style="fill:#e1004a;fill-opacity:1;fill-rule:nonzero;stroke:none" />
      <path
         d="M 475.16634,978.37084 L 557.01259,978.37084 L 557.01259,897.78209 L 475.16634,897.78209 L 475.16634,978.37084 z"
         id="path2604"
         style="fill:#344a98;fill-opacity:1;fill-rule:nonzero;stroke:none" />
      <path
         d="M 497.43509,963.56959 L 500.22259,962.97584 L 499.94759,965.29334 L 497.04009,965.74709 L 493.93884,965.96084 C 493.93884,965.96084 483.76759,965.80334 483.72759,959.00959 C 483.68884,952.21459 493.07509,951.74334 493.07509,951.74334 C 493.07509,951.74334 494.99759,951.59834 496.60884,951.79459 C 498.21884,951.99084 499.71259,952.37209 499.71259,952.37209 L 499.98759,954.57084 C 499.98759,954.57084 497.78134,954.07209 497.07384,953.95459 C 496.36759,953.83709 494.52759,953.90334 494.52759,953.90334 C 494.52759,953.90334 492.11884,954.00209 490.29759,955.21584 C 488.98259,956.09209 488.20509,957.40209 488.20509,959.04834 C 488.20509,960.71834 489.42634,962.20959 490.83009,962.87584 C 492.72884,963.77584 494.80259,963.76084 494.80259,963.76084 L 497.43509,963.56959"
         id="path2606"
         style="fill:#ffffff;fill-opacity:1;fill-rule:nonzero;stroke:none" />
      <path
         d="M 506.89884,965.72459 L 506.89884,951.62584 L 507.17384,951.66459 L 521.22009,959.54334 L 521.39134,959.28334 L 521.39134,951.97959 L 523.98384,951.97959 L 523.98384,965.88209 L 509.96259,958.06709 L 509.68759,958.26334 L 509.68759,965.72459 L 506.89884,965.72459"
         id="path2608"
         style="fill:#ffffff;fill-opacity:1;fill-rule:nonzero;stroke:none" />
      <path
         d="M 531.87759,965.64584 L 531.87759,952.05709 L 536.51009,952.02209 C 536.51009,952.02209 540.56259,951.98084 542.40259,952.21459 C 547.83509,952.90584 547.90134,956.53459 547.90134,956.53459 C 547.90134,956.53459 548.33259,959.75584 544.13009,961.36584 C 539.92759,962.97584 536.23634,962.22959 536.23634,962.22959 L 536.06384,962.62084 L 536.04009,965.68459 L 531.87759,965.64584"
         id="path2610"
         style="fill:#ffffff;fill-opacity:1;fill-rule:nonzero;stroke:none" />
      <path
         d="M 536.11884,954.45334 C 536.11884,954.45334 536.90384,954.02084 539.33884,954.21709 C 543.73509,954.57209 543.26634,957.08459 543.26634,957.08459 C 543.26634,957.08459 543.58134,959.88584 539.45634,960.10834 C 536.55134,960.26584 536.11884,959.91209 536.11884,959.91209 L 536.11884,954.45334"
         id="path2612"
         style="fill:#344a98;fill-opacity:1;fill-rule:nonzero;stroke:none" />
      <path
         d="M 485.43384,972.71584 L 485.10759,971.77209 L 483.91009,971.77209 L 483.62259,972.71584 L 483.28259,972.71584 L 484.33009,969.47959 L 484.79634,969.47959 L 485.84884,972.71584 L 485.43384,972.71584 z M 484.52259,969.91334 L 484.02259,971.46584 L 485.01884,971.46584 L 484.52259,969.91334"
         id="path2614"
         style="fill:#ffffff;fill-opacity:1;fill-rule:nonzero;stroke:none" />
      <path
         d="M 490.48259,971.76209 C 490.61509,972.21084 490.98759,972.41834 491.44134,972.41834 C 491.63384,972.41834 491.87009,972.37584 492.02134,972.25834 C 492.14384,972.16334 492.21884,971.99834 492.21884,971.84209 C 492.21884,971.51834 491.95009,971.38459 491.66759,971.31459 L 491.12884,971.18334 C 490.91259,971.13084 490.71384,971.07834 490.54384,970.92209 C 490.37509,970.77209 490.28009,970.55084 490.28009,970.32334 C 490.28009,969.70084 490.81759,969.43209 491.38009,969.43209 C 491.92259,969.43209 492.35634,969.70084 492.53009,970.22459 L 492.16259,970.32334 C 492.09134,969.96959 491.71384,969.75209 491.37009,969.75209 C 491.06384,969.75209 490.67634,969.91334 490.67634,970.26709 C 490.67634,970.63084 490.95884,970.71084 491.26134,970.78084 L 491.74759,970.89959 C 491.96009,970.94709 492.17259,971.00709 492.33759,971.14959 C 492.54009,971.31459 492.63884,971.53584 492.63884,971.79084 C 492.63884,972.08334 492.51134,972.34834 492.27634,972.52584 C 492.04009,972.70584 491.72384,972.76209 491.43134,972.76209 C 490.77134,972.76209 490.33759,972.46959 490.12009,971.84209 L 490.48259,971.76209"
         id="path2616"
         style="fill:#ffffff;fill-opacity:1;fill-rule:nonzero;stroke:none" />
      <path
         d="M 497.45759,971.76209 C 497.58884,972.21084 497.96259,972.41834 498.41509,972.41834 C 498.60884,972.41834 498.84384,972.37584 498.99509,972.25834 C 499.11759,972.16334 499.19384,971.99834 499.19384,971.84209 C 499.19384,971.51834 498.92509,971.38459 498.64134,971.31459 L 498.10384,971.18334 C 497.88634,971.13084 497.68884,971.07834 497.51884,970.92209 C 497.34884,970.77209 497.25509,970.55084 497.25509,970.32334 C 497.25509,969.70084 497.79259,969.43209 498.35384,969.43209 C 498.89634,969.43209 499.33009,969.70084 499.50509,970.22459 L 499.13634,970.32334 C 499.06634,969.96959 498.68884,969.75209 498.34384,969.75209 C 498.03759,969.75209 497.65009,969.91334 497.65009,970.26709 C 497.65009,970.63084 497.93384,970.71084 498.23634,970.78084 L 498.72134,970.89959 C 498.93384,970.94709 499.14634,971.00709 499.31134,971.14959 C 499.51384,971.31459 499.61259,971.53584 499.61259,971.79084 C 499.61259,972.08334 499.48634,972.34834 499.25009,972.52584 C 499.01384,972.70584 498.69759,972.76209 498.40509,972.76209 C 497.74509,972.76209 497.31134,972.46959 497.09384,971.84209 L 497.45759,971.76209"
         id="path2618"
         style="fill:#ffffff;fill-opacity:1;fill-rule:nonzero;stroke:none" />
      <path
         d="M 506.48384,969.47959 L 506.48384,971.52709 C 506.48384,971.84709 506.46509,972.14459 506.24759,972.40334 C 506.03134,972.66334 505.70509,972.76209 505.37509,972.76209 C 505.05884,972.76209 504.72384,972.69709 504.50759,972.45209 C 504.27134,972.18709 504.25259,971.86209 504.25259,971.52709 L 504.25259,969.47959 L 504.65884,969.47959 L 504.65884,971.52709 C 504.65884,971.71959 504.66259,971.98459 504.78009,972.15334 C 504.91259,972.34834 505.18634,972.40334 505.40759,972.40334 C 505.61634,972.40334 505.85134,972.33834 505.98884,972.17334 C 506.14384,971.98959 506.14384,971.74834 506.14384,971.52709 L 506.14384,969.47959 L 506.48384,969.47959"
         id="path2620"
         style="fill:#ffffff;fill-opacity:1;fill-rule:nonzero;stroke:none" />
      <path
         d="M 513.22259,972.71584 L 512.62259,971.31459 L 511.72634,971.31459 L 511.72634,972.71584 L 511.32134,972.71584 L 511.32134,969.47959 L 512.53384,969.47959 C 512.79759,969.47959 513.05259,969.51209 513.26884,969.67709 C 513.48634,969.84209 513.61384,970.11209 513.61384,970.38459 C 513.61384,970.76709 513.38759,971.11084 513.01009,971.21584 L 513.64634,972.71584 L 513.22259,972.71584 z M 512.48634,970.98334 C 512.70259,970.98334 512.88259,970.97084 513.04259,970.80459 C 513.15634,970.69084 513.20759,970.53584 513.20759,970.37959 C 513.20759,970.19084 513.13759,970.03584 512.98134,969.93209 C 512.84009,969.83334 512.70259,969.82834 512.53384,969.82834 L 511.72634,969.82834 L 511.72634,970.98334 L 512.48634,970.98334"
         id="path2622"
         style="fill:#ffffff;fill-opacity:1;fill-rule:nonzero;stroke:none" />
      <path
         d="M 520.11634,972.71584 L 519.79134,971.77209 L 518.59259,971.77209 L 518.30509,972.71584 L 517.96509,972.71584 L 519.01259,969.47959 L 519.47884,969.47959 L 520.53134,972.71584 L 520.11634,972.71584 z M 519.20509,969.91334 L 518.70634,971.46584 L 519.70134,971.46584 L 519.20509,969.91334"
         id="path2624"
         style="fill:#ffffff;fill-opacity:1;fill-rule:nonzero;stroke:none" />
      <path
         d="M 526.97759,972.71584 L 525.33134,969.89459 L 525.33134,972.71584 L 524.99134,972.71584 L 524.99134,969.47959 L 525.50134,969.47959 L 527.03384,972.11709 L 527.03384,969.47959 L 527.37384,969.47959 L 527.37384,972.71584 L 526.97759,972.71584"
         id="path2626"
         style="fill:#ffffff;fill-opacity:1;fill-rule:nonzero;stroke:none" />
      <path
         d="M 534.48009,971.70584 C 534.32884,972.31834 533.96509,972.76209 533.28134,972.76209 C 532.34759,972.76209 531.96509,971.86209 531.96509,971.06459 C 531.96509,970.22959 532.37634,969.43209 533.31509,969.43209 C 533.96509,969.43209 534.34759,969.87084 534.48009,970.46584 L 534.09759,970.53584 C 533.98384,970.12584 533.78134,969.77209 533.30009,969.77209 C 532.59759,969.77209 532.40884,970.53584 532.40884,971.09709 C 532.40884,971.35209 532.45134,971.66834 532.56009,971.90459 C 532.69259,972.19084 532.94134,972.42334 533.28134,972.42334 C 533.77759,972.42334 534.00884,972.04959 534.11259,971.62584 L 534.48009,971.70584"
         id="path2628"
         style="fill:#ffffff;fill-opacity:1;fill-rule:nonzero;stroke:none" />
      <path
         d="M 541.23759,972.71584 L 539.14259,972.71584 L 539.14259,969.47959 L 541.19009,969.47959 L 541.19009,969.82834 L 539.54884,969.82834 L 539.54884,970.85709 L 540.85009,970.85709 L 540.85009,971.18334 L 539.54884,971.18334 L 539.54884,972.36584 L 541.23759,972.36584 L 541.23759,972.71584"
         id="path2630"
         style="fill:#ffffff;fill-opacity:1;fill-rule:nonzero;stroke:none" />
      <path
         d="M 545.99509,971.76209 C 546.12634,972.21084 546.50009,972.41834 546.95134,972.41834 C 547.14509,972.41834 547.38134,972.37584 547.53259,972.25834 C 547.65509,972.16334 547.73009,971.99834 547.73009,971.84209 C 547.73009,971.51834 547.46134,971.38459 547.17884,971.31459 L 546.64009,971.18334 C 546.42384,971.13084 546.22509,971.07834 546.05634,970.92209 C 545.88634,970.77209 545.79134,970.55084 545.79134,970.32334 C 545.79134,969.70084 546.33009,969.43209 546.89134,969.43209 C 547.43384,969.43209 547.86759,969.70084 548.04259,970.22459 L 547.67384,970.32334 C 547.60259,969.96959 547.22634,969.75209 546.88134,969.75209 C 546.57509,969.75209 546.18759,969.91334 546.18759,970.26709 C 546.18759,970.63084 546.47134,970.71084 546.77259,970.78084 L 547.25884,970.89959 C 547.47009,970.94709 547.68384,971.00709 547.84759,971.14959 C 548.05134,971.31459 548.15009,971.53584 548.15009,971.79084 C 548.15009,972.08334 548.02259,972.34834 547.78634,972.52584 C 547.55134,972.70584 547.23509,972.76209 546.94259,972.76209 C 546.28259,972.76209 545.84759,972.46959 545.63134,971.84209 L 545.99509,971.76209"
         id="path2632"
         style="fill:#ffffff;fill-opacity:1;fill-rule:nonzero;stroke:none" />
      <path
         d="M 582.11509,935.16959 C 582.11509,935.16959 574.13509,922.86459 556.85509,922.86459 C 539.57509,922.86459 531.82384,935.18084 531.82384,935.18084 L 520.80259,935.16959 C 520.80259,935.16959 531.41509,914.40209 557.02134,914.55959 C 582.62759,914.71709 593.40509,935.16959 593.40509,935.16959 L 582.11509,935.16959"
         id="path2634"
         style="fill:#ffffff;fill-opacity:1;fill-rule:nonzero;stroke:none" />
      <path
         d="M 589.71884,935.16959 C 589.71884,935.16959 579.04134,916.98459 556.59384,917.07334 C 534.21009,917.16084 524.39009,935.18084 524.39009,935.18084 L 531.82384,935.18084 C 531.82384,935.18084 539.57509,922.86459 556.85509,922.86459 C 574.13509,922.86459 582.11509,935.16959 582.11509,935.16959 L 589.71884,935.16959"
         id="path2636"
         style="fill:#00ac98;fill-opacity:1;fill-rule:nonzero;stroke:none" />
    </g>
  </g>
</svg>
