<?xml version="1.0" encoding="utf-8"?>
<!-- Generator: Adobe Illustrator 22.0.1, SVG Export Plug-In . SVG Version: 6.00 Build 0)  -->
<svg xmlns="http://www.w3.org/2000/svg" xmlns:xlink="http://www.w3.org/1999/xlink" version="1.1" id="Calque_1" x="0px" y="0px" xml:space="preserve" viewBox="320 85 480 580">
<style type="text/css">
	.st0{fill:#FFFFFF;}
</style>
<g>
	<g>
		<path class="st0" d="M658.8,483.2c0-7.2,0.5-14.5-0.2-21.6c-0.3-3.1-2.9-6-4.5-8.9c-1.9,3-5.1,5.8-5.4,9c-0.9,10.5-0.4,21.2-1.1,31.8    c-1.2,18.2-6.8,37.1-3.3,54.3c2.8,13.8-8,22.6-5,35.5c2.8,12,1.4,25.2,1,37.8c-0.4,12.8-1.7,25.6-2.6,38.4c-1.4,0-2.9,0-4.3,0    c-1.6-65.9-3.3-131.7-5-197.9c-7.6-0.5-16.1-0.4-24.2-2c-3.4-0.7-6.1-5.2-9.1-7.9c2.4-2.5,4.6-5.3,7.3-7.5    c1.5-1.2,3.7-1.5,5.7-2.2c22.5-7.8,22.8-7.8,21.9-30.9c-1.5-36.7-3.4-73.4-5.2-110.2c-0.2-5-11.3-19.4-14.7-25    c-4.5-7.5-6.7-16.5-8.9-25.2c-2.5-9.8-3.5-20.1-6-29.9c-3.6-14.5,5.2-23.5,20.8-24.8c16.7-1.4,24.8,7.2,27.9,20.7    c6,26.1,12.6,52.4,14.7,79c3,38.1,2,76.6,2.8,114.9c0.1,2.7,0.3,5.5,0.5,9.7c26.7-12.3,49.6-28.2,69.7-47.9    c22.9-22.3,41-47.8,46-80.2c2.5-15.9,1.4-31.6-1.8-48c-13.5-68.4-62.4-101.4-120.8-125.3c-49.5-20.2-101.9-23.8-154.7-22.7    c-62.1,1.4-118.2,20.3-167.7,58c-0.5,0.4-1.4,0.4-5.6,1.3c6.3-5.3,10.2-8.9,14.4-12c4.6-3.4,9.3-6.7,14.1-9.7    c49-30.4,102.9-44,159.9-46c62.5-2.2,122.8,8.4,178.2,38.5c53,28.9,91.6,70.2,101.1,132.6c5.1,33.3-3.7,63.8-22.2,91.4    c-11.3,16.9-22.4,34.3-35.9,49.5c-10.2,11.5-23.6,20.4-36.4,29.3c-10.3,7.1-22,12-32.6,18.7c-3.1,1.9-5.7,6.5-6.1,10.2    c-0.9,8.3-0.3,16.8-0.3,25.3C660.6,483.2,659.7,483.2,658.8,483.2z M648.7,424.5c10.9-4.7,13.4-43.6,6.7-76    C653.3,373.2,651,398.4,648.7,424.5z"/>
		<path class="st0" d="M562,462.5c-21.6,3.1-43.2,8.4-64.8,8.7c-26.1,0.3-53.2,0-78.2-6.4c-52.1-13.3-76.3-50.4-72.9-104.7    c2.4-39.5,16.9-74.8,37.8-107.9c5.5-8.7,8.9-18.7,14.2-27.6c3.8-6.4,8.6-12.4,13.9-17.8c15.5-15.9,31.4-31.6,54.6-35.6    c3.7-0.6,8.3-0.4,11.6,1.2c3.3,1.7,7,5.3,7.8,8.7c0.5,2.2-3.3,6.7-6.2,8.2c-38.8,19.4-68.1,48.8-89.3,86.1    c-8.4,14.7-14.1,30.9-20.9,46.5c-4.6,10.6-8.9,21.2-14,33.3c4.7-0.8,6.2-1.1,7.7-1.3c4.5-0.5,9.3,0,13.5-1.5    c32-11.7,66.3-16.6,96.7-32.8c6.7-3.6,12.9-8.1,21.1-9.9c-7.4,5.6-14.2,12.3-22.2,16.6c-20,10.8-40.7,20.4-60.8,30.9    c-9.8,5.1-18.9,11.7-28.7,17c-3.8,2.1-8.7,2.1-12.7,4c-3.2,1.6-5.8,4.5-8.8,6.9c-0.1-0.2-1.4-2.3-3.5-5.8    c-0.6,33,17.6,59.9,48.4,72.3c42.8,17.2,86.9,19.1,131.9,10.8c7.6-1.4,15.2-2.3,22.8-3.4C561.3,460.3,561.7,461.4,562,462.5z"/>
	</g>
</g>
</svg>
